<?xml version="1.0" encoding="utf-8"?>
<!-- Generator: Adobe Illustrator 22.1.0, SVG Export Plug-In . SVG Version: 6.00 Build 0)  -->
<svg version="1.1" id="Layer_1" xmlns="http://www.w3.org/2000/svg" xmlns:xlink="http://www.w3.org/1999/xlink" x="0px" y="0px"
	 viewBox="0 0 1966 204.4" style="enable-background:new 0 0 1966 204.4;" xml:space="preserve">
<style type="text/css">
	.st0{fill:#2E27B0;}
	.st1{fill:#FEFEFE;}
	.st2{fill:#0018A7;}
</style>
<g>
	<path class="st0" d="M208.9,5.1c37.3,0,73.6-1.3,109.8,0.4c29.6,1.4,46,30.1,37.7,63.6c-2.4,9.6-8.3,17.6-12.7,26.6
		c16.7,19.8,21.1,37.6,14.5,61.5c-6,21.7-21.9,34.7-43.6,34.8c-34.9,0.2-69.8,0.1-105.7,0.1C208.9,129.8,208.9,68.4,208.9,5.1z
		 M221.1,81.7c21.5,0,72,2.5,92.3,2.3c10.6-0.1,18.7-4.6,19.3-21.2c0.6-16.3-6.9-23.7-17.4-24.1c-27-0.9-54.1-0.3-81.6-0.3
		c0,40.6,0,79.9,0,120.3c27.8,0,54.8,0.1,81.9-0.2c3.5,0,8.1-1.1,10.2-4.1c3.9-5.7,8.9-13.3,8.7-19.8c-0.2-6.5-5.3-14.5-9.9-18.5
		c-4.1-3.5-10.4-2.9-15.8-2.9c-18.9-0.3-68,2.3-87.6,2.3C221.1,105.3,221.1,92.4,221.1,81.7z"/>
	<path class="st0" d="M1955.8,5.5c0,10.6,0,20,0,31.9c-30.5,0-60.7-0.3-90.9,0.1c-40.9,0.5-65.8,37.5-54.2,79.9
		c6.6,24.3,25,40.9,48.5,41.8c24.8,0.9,49.7,0.2,76,0.2c0-15.1,0-29.6,0-46c-25,0-50.1,0-76.4,0c0-9.9,0-18.1,0-27.8
		c35,0,70.5,0,107.1,0c0,34.7,0,69.7,0,105.8c-39,0-77.8,2.8-116-0.7c-45.2-4.2-75.1-49.3-72.2-101.7c2.8-48.4,35.9-83,81.6-84
		c29.3-0.7,58.6-0.2,87.9-0.2C1949.5,4.8,1951.7,5.2,1955.8,5.5z"/>
	<path class="st0" d="M1234.1,138.3c16.7,18.7,32,35.7,47.4,53c-21,2.5-41.7,5.1-56.1-19c-15.1-25.4-36.7-35.7-64.7-30.7
		c-8,1.5-16.4,0.2-25.9,0.2c0-9.7,0-18.2,0-28.8c22.9,0,45.4,0.2,68,0c25.2-0.2,36.4-11.8,36.6-37.5c0.2-25.6-10.9-37.6-36.1-37.9
		c-29.7-0.3-59.5-0.1-90.9-0.1c0,51.8,0,101.9,0,153.4c-10.6,0-19.6,0-29.7,0c0-61.5,0-122.9,0-185.1c46.1,0,91.3-1.7,136.4,0.7
		c25.4,1.4,42.6,19.4,48,47.2c5.5,28.5,2.6,55.1-20.1,75C1243.8,131.6,1240,134,1234.1,138.3z"/>
	<path class="st0" d="M0,5.2c37.3,0,73.4-1.9,109.2,0.5C153.8,8.6,183.7,47,183.6,97c-0.1,51.2-31.7,91.9-76.1,94.5
		c-35.3,2-70.7,0.4-107.5,0.4C0,129.7,0,68.3,0,5.2z M30.4,37.6c0,41.7,0,81.3,0,121.8c25.1,0,48.8,1,72.4-0.3
		c30-1.6,50.6-27.7,50.4-61.7c-0.2-33-20.6-58.1-50.4-59.7C79.2,36.6,55.5,37.6,30.4,37.6z"/>
	<path class="st0" d="M1602.3,191.3c-10.9,0-19.5,0-30,0c0-18.6,0-36.4,0-54.3c0-36-0.6-72.1,0.5-108c0.2-7.7,4.7-19.3,10.1-21.7
		c5.3-2.4,16,2.5,21.2,7.8c35,35.8,69.2,72.6,103.7,109.1c4.3,4.5,8.6,8.9,15.8,16.4c0-47.3,0-90.6,0-134.8c10.5,0,19,0,29.3,0
		c0,36,0,71.3,0,106.6c0,18.6,0.9,37.3-0.5,55.8c-0.6,7.8-4.7,19.4-10,21.7c-5.5,2.3-16.1-2.5-21.3-7.8
		c-37.1-37.8-73.5-76.5-110.1-114.9c-2-2.1-4.1-4-8.7-8.5C1602.3,104.4,1602.3,147.5,1602.3,191.3z"/>
	<path class="st0" d="M719.1,141.5c0-11.4,0-20.7,0-32.4c23.1,0,45.6,0.3,68.1-0.1c21.9-0.4,34.3-12.9,35.1-34.2
		c0.7-20.5-9.9-35.9-28.8-36.7c-31.4-1.3-62.8-0.4-96.4-0.4c0,51.5,0,102.1,0,153.5c-10.8,0-19.4,0-29.3,0c0-61.6,0-122.9,0-185.2
		c45.2,0,90.6-2.7,135.5,0.9c33.5,2.6,50.8,32.3,48.6,71.2c-2.1,36.6-23.3,61.4-56.2,63.2C770.8,142.6,745.9,141.5,719.1,141.5z"/>
	<path class="st0" d="M1061.7,190.3c-23.6,6.8-40.6,1.5-49.2-24.2c-5.5-16.5-16.1-23-33.1-21.2c-19,2-38.3,0.5-58.6,0.5
		c5.3-18,12.8-28.5,31-25.5c10.2,1.6,20.9,0.3,34.6,0.3c-13.3-24-25.3-45.7-38.7-70c-12.4,22.4-23.7,42.8-35,63.1
		c-10,18-21.6,35.1-29.5,54.1c-9.7,23.2-24.3,30-46.9,22.9c2.2-4.5,4.2-9.2,6.7-13.6C872,124.3,901.2,72,930.5,19.9
		c12.7-22.5,23.6-22.6,36.3-0.1c30,53.1,59.8,106.4,89.6,159.6C1058.4,182.8,1059.9,186.5,1061.7,190.3z"/>
	<path class="st0" d="M1482.7,8.2c-35.9,29.4-71.7,58.8-109.4,89.6c38.4,31,75.5,60.8,112.6,90.7c-20.3,2.4-39.7,8.6-58.1-9.4
		c-23.7-23.2-50.2-43.1-75.3-64.7c-15.9-13.7-15.9-23.4,0.1-36.8c26.2-22,51.4-45.9,79.5-64.6c13.4-8.9,32.4-7.7,48.9-11.1
		C1481.6,4,1482.2,6.1,1482.7,8.2z"/>
	<g>
		<g>
			<path class="st1" d="M605.2,105.9c0,29.5-0.3,59.1,0.2,88.6c0.1,7.6-1,10-9.4,9.9c-46.5-0.5-93-0.4-139.6-0.1
				c-6.8,0-10.5,0.4-10.4-8.9c0.6-61,0.4-122,0.2-182.9c0-6.6,0.8-9,8.4-8.9c47.1,0.5,94.3,0.5,141.4,0c8.7-0.1,9.4,2.6,9.3,10
				C605,44.3,605.2,75.1,605.2,105.9z"/>
			<path class="st2" d="M453.7,188.6c30.8-54.2,61-105.9,89.5-158.6c6.6-12.2,13.6-16.1,26.1-15c8.7,0.8,17.5,0.1,28.7,0.1
				c-22.4,40-44,78.6-65.7,117.1c-3.9,7-8.1,13.9-12.1,20.8C498.8,190,498.8,190,453.7,188.6z"/>
		</g>
	</g>
	<path class="st0" d="M1330.3,191.4c-9.9,0-18.6,0-28.3,0c0-61.7,0-122.7,0-185.1c8.9,0,17.9,0,28.3,0
		C1330.3,67.1,1330.3,128.5,1330.3,191.4z"/>
	<path class="st0" d="M1540.8,191.4c-9.8,0-18.5,0-28.1,0c0-61.7,0-122.7,0-185.2c8.7,0,17.7,0,28.1,0
		C1540.8,67.1,1540.8,128.5,1540.8,191.4z"/>
</g>
</svg>
